<svg width="187" height="333" viewBox="0 0 187 333" fill="none" xmlns="http://www.w3.org/2000/svg">
<g clip-path="url(#clip0_219_111)">
<path d="M0.376216 95.0985L-0.000149795 329.124L175.556 266.626C182.261 264.232 186.733 257.96 186.744 250.945L187.107 25.4366L0.376216 95.0985Z" fill="#1D3557"/>
<path d="M110.75 152.674C108.058 153.642 105.501 154.823 103.092 156.191L91.0644 139.416L81.4226 125.657L99.1995 119.269C104.301 117.436 107.606 119.569 108.618 122.495C109.193 124.158 108.993 125.988 108.054 127.648C106.772 129.917 104.207 131.794 100.637 133.077L103.904 142.523C111.437 139.817 115.12 135.529 116.883 132.409C119.236 128.246 119.726 123.374 118.228 119.041C116.823 114.978 113.887 111.763 109.959 109.988C105.761 108.091 100.91 108.033 95.9328 109.822L65.4996 120.757L78.9154 139.901L6.60563 165.883L1.94721 160.335L17.9624 154.581L14.696 145.134L-24.0081 159.041L-20.7417 168.488L-8.31025 164.021L-0.643813 173.152L-7.59429 200.574C-14.7754 199.717 -22.2952 200.478 -29.6214 203.111C-54.5126 212.056 -67.8811 239.238 -59.4213 263.704C-50.9614 288.17 -23.8275 300.799 1.06364 291.855C24.3316 283.494 37.5277 259.197 32.2399 236.078L38.2399 233.923C42.1096 238.674 48.779 240.687 55.0087 238.448C62.9231 235.605 67.1734 226.962 64.4834 219.183C63.5578 216.506 61.929 214.275 59.8685 212.615L87.771 152.374L94.7765 162.144C80.6479 174.689 74.5496 194.753 80.9509 213.266C89.4109 237.733 116.544 250.361 141.435 241.417C166.327 232.473 179.695 205.291 171.235 180.825C162.775 156.358 135.641 143.73 110.75 152.674ZM77.285 151.108L50.3218 209.322C48.6423 209.337 46.9311 209.629 45.2516 210.232C44.8927 210.361 44.5436 210.506 44.1997 210.658L13.4557 174.043L77.285 151.108V151.108ZM7.35145 182.675L36.7234 217.657C35.6236 219.754 35.0084 222.088 34.973 224.476L28.9735 226.632C23.5461 215.14 13.7534 206.796 2.24334 202.83L7.35145 182.675ZM19.285 230.113L-7.07179 239.584L-0.260919 212.711C8.03627 215.843 15.101 221.898 19.285 230.113ZM-2.2026 282.409C-21.7949 289.449 -43.1517 279.508 -49.8106 260.251C-56.4695 240.993 -45.9473 219.599 -26.355 212.559C-20.9548 210.619 -15.4218 209.975 -10.0984 210.454L-21.4861 255.383L22.5509 239.56C26.0861 257.436 15.7588 275.955 -2.2026 282.409ZM51.7423 229.002C49.1272 229.941 46.2762 228.615 45.3874 226.044C44.4988 223.474 45.9034 220.618 48.5185 219.679C51.1331 218.739 53.9841 220.066 54.8727 222.636C55.7616 225.207 54.3569 228.062 51.7423 229.002ZM138.169 231.971C118.577 239.01 97.2203 229.07 90.5616 209.813C85.6475 195.601 90.0985 180.232 100.639 170.321L121.933 200.02L130.253 194.071L108.953 164.365C110.564 163.509 112.252 162.755 114.017 162.121C133.609 155.081 154.966 165.021 161.625 184.278C168.284 203.536 157.761 224.931 138.169 231.971Z" fill="#E63946"/>
</g>
<defs>
<clipPath id="clip0_219_111">
<rect width="187" height="355" fill="white"/>
</clipPath>
</defs>
</svg>
