<svg width="189" height="308" viewBox="0 0 189 308" fill="none" xmlns="http://www.w3.org/2000/svg">
<g clip-path="url(#clip0_219_112)">
<path d="M1.89 75.7964L1.50912 303.722L175.795 242.847C182.452 240.515 186.891 234.406 186.902 227.574L187.269 7.94448L1.89 75.7964Z" fill="#1D3557"/>
<path d="M125.292 92.6794L108.651 98.7291L107.437 97.684C102.358 93.314 95.2853 92.0233 88.9799 94.3156L-49.9805 144.834C-53.406 146.079 -55.1754 149.861 -53.9325 153.28L-20.5104 245.213C-19.2675 248.632 -15.4827 250.394 -12.0572 249.149L-1.21941 245.209C5.05202 253.988 16.6518 257.914 27.2939 254.045C37.9361 250.176 44.3064 239.717 43.4754 228.96L104.229 206.874C110.5 215.653 122.1 219.579 132.742 215.71C143.384 211.841 149.754 201.382 148.924 190.625L161.932 185.896C165.357 184.65 167.127 180.869 165.884 177.45L152.589 140.88C151.221 137.117 148.96 133.674 146.051 130.922C145.976 130.851 120.103 108.583 120.103 108.583L129.793 105.06C132.073 104.231 134.601 105.408 135.428 107.683L139.105 117.796C140.348 121.215 144.132 122.977 147.558 121.731C150.983 120.486 152.753 116.705 151.51 113.286L147.834 103.175C144.525 94.0711 134.413 89.3635 125.292 92.6794ZM83.3474 142.623L61.3277 150.628L50.9746 122.15L72.9943 114.145L83.3474 142.623ZM-0.0804168 172.953L-10.4335 144.475L11.5862 136.47L21.9392 164.948L-0.0804168 172.953ZM20.2703 133.312L42.2899 125.307L52.643 153.785L30.6233 161.79L20.2703 133.312ZM-19.1169 147.632L-8.76385 176.11L-28.9236 183.439L-39.2766 154.961L-19.1169 147.632ZM22.793 241.664C16.8429 243.828 10.246 240.756 8.08698 234.817C5.92802 228.879 9.0122 222.288 14.9623 220.125C20.9124 217.962 27.5091 221.032 29.6683 226.972C31.8273 232.91 28.7431 239.501 22.793 241.664ZM128.24 203.329C122.29 205.493 115.693 202.421 113.534 196.482C111.375 190.544 114.46 183.953 120.41 181.79C126.36 179.627 132.957 182.698 135.116 188.637C137.275 194.575 134.191 201.166 128.24 203.329ZM144.422 178.244C138.15 169.465 126.55 165.539 115.908 169.408C105.266 173.277 98.8959 183.735 99.7269 194.493L38.9742 216.579C32.7028 207.8 21.103 203.874 10.4609 207.743C-0.181275 211.612 -6.55156 222.07 -5.7206 232.828L-10.3557 234.513L-24.4224 195.82L90.996 153.86L143.861 155.507L151.227 175.769L144.422 178.244ZM138.437 142.154L92.4882 140.722L81.6784 110.988L93.4811 106.697C95.3031 106.035 97.346 106.407 98.8138 107.67C98.8138 107.67 138.024 141.597 138.437 142.154Z" fill="#E63946"/>
</g>
<defs>
<clipPath id="clip0_219_112">
<rect width="186.833" height="305.88" fill="white" transform="translate(0 1.17529) rotate(-0.360443)"/>
</clipPath>
</defs>
</svg>
