<svg width="329" height="329" viewBox="0 0 329 329" fill="none" xmlns="http://www.w3.org/2000/svg">
<path d="M75.2613 91.5608L74.878 325.806L250.283 263.243C256.983 260.847 261.45 254.569 261.462 247.547L261.831 21.8273L75.2613 91.5608Z" fill="#1D3557"/>
<g clip-path="url(#clip0_219_109)">
<path d="M197.814 193.116L188.813 196.88L161.81 208.17L152.809 211.933L125.806 223.223L116.805 226.987L89.8021 238.277L80.8008 242.041L53.7981 253.331L44.7968 257.094L17.7931 268.385L8.79189 272.148L-18.2118 283.439L-27.2131 287.202L-49.7152 296.61L-54.2158 298.492L-49.964 312.295C-47.6199 319.905 -39.654 323.565 -32.2103 320.453C-24.7666 317.341 -20.6162 308.615 -22.9603 301.005L-24.3776 296.404L-15.3763 292.64L-13.959 297.241C-11.615 304.851 -3.64904 308.512 3.79465 305.399C11.2383 302.287 15.3887 293.561 13.0447 285.951L11.6274 281.35L20.6286 277.586L22.0459 282.187C24.39 289.797 32.3559 293.458 39.7996 290.345C47.2433 287.233 51.3937 278.507 49.0496 270.897L47.6323 266.296L56.6336 262.532L58.0509 267.133C60.3949 274.743 68.3609 278.404 75.8046 275.291C83.2482 272.179 87.3986 263.453 85.0546 255.843L83.6373 251.242L92.6385 247.478L94.0558 252.079C96.3999 259.689 104.366 263.35 111.809 260.237C119.253 257.125 123.404 248.399 121.059 240.789L119.642 236.188L128.643 232.424L130.061 237.025C132.405 244.635 140.371 248.296 147.814 245.183C155.258 242.071 159.409 233.345 157.064 225.735L155.647 221.134L164.648 217.37L166.066 221.972C168.41 229.581 176.376 233.242 183.819 230.129C191.263 227.017 195.413 218.291 193.069 210.681L191.652 206.08L200.653 202.317L202.071 206.918C204.415 214.527 212.381 218.188 219.824 215.076C227.268 211.963 231.418 203.237 229.074 195.627L224.823 181.824L220.322 183.706L197.814 193.116ZM-31.9618 304.767C-31.1808 307.303 -32.5652 310.213 -35.0451 311.25C-37.5251 312.287 -40.1821 311.066 -40.963 308.531L-42.3803 303.93L-33.3791 300.166L-31.9618 304.767V304.767ZM4.0422 289.714C4.82316 292.249 3.43883 295.16 0.958855 296.197C-1.52112 297.233 -4.17808 296.013 -4.95904 293.477L-6.37633 288.876L2.62491 285.113C2.62521 285.114 4.0422 289.714 4.0422 289.714ZM40.0462 274.66C40.8272 277.196 39.4428 280.106 36.9629 281.143C34.4829 282.18 31.8259 280.959 31.045 278.424L29.6277 273.823L38.6289 270.059L40.0462 274.66ZM76.0502 259.607C76.8312 262.142 75.4468 265.053 72.9669 266.089C70.4869 267.126 67.8299 265.905 67.049 263.37L65.6317 258.769L74.6329 255.006L76.0502 259.607ZM112.055 244.553C112.836 247.088 111.452 249.999 108.972 251.035C106.492 252.072 103.835 250.851 103.054 248.316L101.637 243.715L110.638 239.952L112.055 244.553ZM148.059 229.499C148.84 232.034 147.456 234.945 144.976 235.982C142.496 237.019 139.839 235.798 139.058 233.263L137.641 228.662L146.642 224.898L148.059 229.499ZM184.063 214.446C184.844 216.981 183.46 219.891 180.98 220.928C178.5 221.965 175.843 220.744 175.062 218.209L173.645 213.608L182.646 209.844L184.063 214.446ZM220.067 199.392C220.848 201.927 219.464 204.838 216.984 205.875C214.504 206.912 211.847 205.691 211.066 203.156L209.649 198.554L218.65 194.791L220.067 199.392Z" fill="#E63946"/>
<path d="M147.951 111.191L-83.1689 209.898L-74.6066 238.292L-68.8981 257.222L-58.9086 290.348L208.465 176.157C215.96 172.956 220.139 163.98 217.779 156.153L213.498 141.956C204.843 113.255 175.436 99.4523 147.951 111.191ZM190.402 125.112C195.623 129.127 199.906 134.578 202.741 141.21L175.818 152.708C170.82 154.843 165.475 152.335 163.9 147.115C162.326 141.894 165.111 135.914 170.11 133.779L190.402 125.112ZM-65.5426 234.422L-47.4152 226.68L-41.7067 245.61L-59.8341 253.352L-65.5426 234.422ZM205.611 166.693L-52.6988 277.013L-56.9802 262.816L-38.8528 255.074C-33.8546 252.939 -31.069 246.958 -32.6433 241.738L-38.3518 222.808C-39.9257 217.589 -45.2706 215.079 -50.2697 217.214L-68.3971 224.956L-71.2513 215.491L150.805 120.655C160.484 116.521 170.453 116.28 179.236 119.196L167.254 124.313C157.257 128.583 151.687 140.545 154.835 150.985C157.984 161.425 168.674 166.443 178.671 162.173L205.861 150.56L208.716 160.025C209.502 162.633 208.108 165.627 205.611 166.693Z" fill="#E63946"/>
<path d="M130.338 140.016L111.81 148.074C106.701 150.295 103.854 156.52 105.463 161.953L111.298 181.655C112.907 187.087 118.369 189.699 123.479 187.477L142.007 179.419C147.116 177.198 149.963 170.973 148.354 165.54L142.519 145.838C140.909 140.405 135.446 137.794 130.338 140.016ZM139.089 169.567L120.561 177.625L114.727 157.923L133.255 149.866L139.089 169.567Z" fill="#E63946"/>
<path d="M85.5175 158.343L66.9895 166.401C61.8809 168.623 59.0338 174.847 60.6429 180.281L66.4775 199.982C68.0862 205.414 73.5492 208.026 78.6587 205.804L97.1867 197.747C102.295 195.525 105.142 189.3 103.533 183.867L97.6987 164.165C96.0887 158.733 90.6261 156.122 85.5175 158.343ZM94.269 187.895L75.7411 195.952L69.9065 176.251L88.4345 168.193L94.269 187.895Z" fill="#E63946"/>
</g>
<defs>
<clipPath id="clip0_219_109">
<rect width="187" height="237" fill="white" transform="translate(74.8311 29.5092)"/>
</clipPath>
</defs>
</svg>
