<svg width="246" height="41" viewBox="0 0 246 41" fill="none" xmlns="http://www.w3.org/2000/svg">
<path d="M0.698864 1.45454H5.11364L15.4943 26.8097H15.8523L26.233 1.45454H30.6477V32H27.1875V8.79261H26.8892L17.3438 32H14.0028L4.45739 8.79261H4.15909V32H0.698864V1.45454ZM60.1236 32.4773C58.0555 32.4773 56.2408 31.9851 54.6798 31.0007C53.1286 30.0163 51.9155 28.6392 51.0405 26.8693C50.1755 25.0994 49.743 23.0312 49.743 20.6648C49.743 18.2784 50.1755 16.1953 51.0405 14.4155C51.9155 12.6357 53.1286 11.2536 54.6798 10.2692C56.2408 9.2848 58.0555 8.79261 60.1236 8.79261C62.1918 8.79261 64.0015 9.2848 65.5526 10.2692C67.1137 11.2536 68.3268 12.6357 69.1918 14.4155C70.0668 16.1953 70.5043 18.2784 70.5043 20.6648C70.5043 23.0312 70.0668 25.0994 69.1918 26.8693C68.3268 28.6392 67.1137 30.0163 65.5526 31.0007C64.0015 31.9851 62.1918 32.4773 60.1236 32.4773ZM60.1236 29.3153C61.6947 29.3153 62.9873 28.9126 64.0015 28.1072C65.0157 27.3018 65.7664 26.2429 66.2536 24.9304C66.7408 23.6179 66.9844 22.196 66.9844 20.6648C66.9844 19.1335 66.7408 17.7067 66.2536 16.3842C65.7664 15.0618 65.0157 13.9929 64.0015 13.1776C62.9873 12.3622 61.6947 11.9545 60.1236 11.9545C58.5526 11.9545 57.26 12.3622 56.2458 13.1776C55.2316 13.9929 54.4809 15.0618 53.9937 16.3842C53.5065 17.7067 53.2628 19.1335 53.2628 20.6648C53.2628 22.196 53.5065 23.6179 53.9937 24.9304C54.4809 26.2429 55.2316 27.3018 56.2458 28.1072C57.26 28.9126 58.5526 29.3153 60.1236 29.3153ZM89.5846 32V1.45454H93.1045V12.7301H93.4028C93.6613 12.3324 94.0193 11.8253 94.4767 11.2088C94.944 10.5824 95.6102 10.0256 96.4753 9.53835C97.3503 9.04119 98.5335 8.79261 100.025 8.79261C101.954 8.79261 103.654 9.27486 105.126 10.2393C106.597 11.2038 107.746 12.571 108.571 14.3409C109.396 16.1108 109.809 18.1989 109.809 20.6051C109.809 23.0312 109.396 25.1342 108.571 26.9141C107.746 28.6839 106.602 30.0561 105.141 31.0305C103.679 31.995 101.994 32.4773 100.085 32.4773C98.6131 32.4773 97.4348 32.2337 96.5498 31.7464C95.6649 31.2493 94.9838 30.6875 94.5065 30.0611C94.0292 29.4247 93.6613 28.8977 93.4028 28.4801H92.9852V32H89.5846ZM93.0449 20.5455C93.0449 22.2756 93.2984 23.8018 93.8055 25.1243C94.3126 26.4368 95.0534 27.4659 96.0278 28.2116C97.0023 28.9474 98.1954 29.3153 99.6074 29.3153C101.079 29.3153 102.307 28.9276 103.291 28.152C104.286 27.3665 105.031 26.3125 105.529 24.9901C106.036 23.6577 106.289 22.1761 106.289 20.5455C106.289 18.9347 106.041 17.483 105.543 16.1903C105.056 14.8878 104.315 13.8587 103.321 13.103C102.337 12.3374 101.099 11.9545 99.6074 11.9545C98.1756 11.9545 96.9724 12.3175 95.998 13.0433C95.0236 13.7592 94.2878 14.7635 93.7906 16.0561C93.2935 17.3388 93.0449 18.8352 93.0449 20.5455ZM128.423 32V9.09091H131.943V32H128.423ZM130.213 5.27273C129.527 5.27273 128.935 5.03906 128.438 4.57173C127.951 4.1044 127.707 3.54261 127.707 2.88636C127.707 2.23011 127.951 1.66832 128.438 1.20099C128.935 0.733664 129.527 0.5 130.213 0.5C130.899 0.5 131.486 0.733664 131.973 1.20099C132.47 1.66832 132.719 2.23011 132.719 2.88636C132.719 3.54261 132.47 4.1044 131.973 4.57173C131.486 5.03906 130.899 5.27273 130.213 5.27273ZM155.14 1.45454V32H151.62V1.45454H155.14ZM174.817 32V9.09091H178.337V32H174.817ZM176.607 5.27273C175.921 5.27273 175.329 5.03906 174.832 4.57173C174.345 4.1044 174.101 3.54261 174.101 2.88636C174.101 2.23011 174.345 1.66832 174.832 1.20099C175.329 0.733664 175.921 0.5 176.607 0.5C177.293 0.5 177.879 0.733664 178.367 1.20099C178.864 1.66832 179.112 2.23011 179.112 2.88636C179.112 3.54261 178.864 4.1044 178.367 4.57173C177.879 5.03906 177.293 5.27273 176.607 5.27273ZM207.977 9.09091V12.0739H196.105V9.09091H207.977ZM199.565 3.60227H203.085V25.4375C203.085 26.4318 203.229 27.1776 203.517 27.6747C203.816 28.1619 204.193 28.4901 204.651 28.6591C205.118 28.8182 205.61 28.8977 206.127 28.8977C206.515 28.8977 206.833 28.8778 207.082 28.8381C207.33 28.7884 207.529 28.7486 207.678 28.7188L208.394 31.8807C208.156 31.9702 207.823 32.0597 207.395 32.1491C206.968 32.2486 206.426 32.2983 205.769 32.2983C204.775 32.2983 203.801 32.0845 202.846 31.657C201.901 31.2294 201.116 30.5781 200.49 29.7031C199.873 28.8281 199.565 27.7244 199.565 26.392V3.60227ZM228.769 40.5909C228.172 40.5909 227.64 40.5412 227.173 40.4418C226.705 40.3523 226.382 40.2628 226.203 40.1733L227.098 37.071C227.953 37.2898 228.709 37.3693 229.365 37.3097C230.021 37.25 230.603 36.9567 231.11 36.4297C231.627 35.9126 232.1 35.0724 232.527 33.9091L233.183 32.1193L224.712 9.09091H228.53L234.854 27.3466H235.092L241.416 9.09091H245.234L235.51 35.3409C235.073 36.5241 234.531 37.5036 233.884 38.2791C233.238 39.0646 232.487 39.6463 231.632 40.0241C230.787 40.402 229.832 40.5909 228.769 40.5909Z" fill="#E63946"/>
<path d="M0.698864 1.45454V-0.545455H-1.30114V1.45454H0.698864ZM5.11364 1.45454L6.96452 0.69677L6.45594 -0.545455H5.11364V1.45454ZM15.4943 26.8097L13.6434 27.5674L14.152 28.8097H15.4943V26.8097ZM15.8523 26.8097V28.8097H17.1946L17.7032 27.5674L15.8523 26.8097ZM26.233 1.45454V-0.545455H24.8907L24.3821 0.69677L26.233 1.45454ZM30.6477 1.45454H32.6477V-0.545455H30.6477V1.45454ZM30.6477 32V34H32.6477V32H30.6477ZM27.1875 32H25.1875V34H27.1875V32ZM27.1875 8.79261H29.1875V6.79261H27.1875V8.79261ZM26.8892 8.79261V6.79261H25.5493L25.0396 8.03183L26.8892 8.79261ZM17.3438 32V34H18.6837L19.1934 32.7608L17.3438 32ZM14.0028 32L12.1532 32.7608L12.6629 34H14.0028V32ZM4.45739 8.79261L6.30704 8.03183L5.79733 6.79261H4.45739V8.79261ZM4.15909 8.79261V6.79261H2.15909V8.79261H4.15909ZM4.15909 32V34H6.15909V32H4.15909ZM0.698864 32H-1.30114V34H0.698864V32ZM0.698864 3.45454H5.11364V-0.545455H0.698864V3.45454ZM3.26275 2.21232L13.6434 27.5674L17.3452 26.0519L6.96452 0.69677L3.26275 2.21232ZM15.4943 28.8097H15.8523V24.8097H15.4943V28.8097ZM17.7032 27.5674L28.0838 2.21232L24.3821 0.69677L14.0014 26.0519L17.7032 27.5674ZM26.233 3.45454H30.6477V-0.545455H26.233V3.45454ZM28.6477 1.45454V32H32.6477V1.45454H28.6477ZM30.6477 30H27.1875V34H30.6477V30ZM29.1875 32V8.79261H25.1875V32H29.1875ZM27.1875 6.79261H26.8892V10.7926H27.1875V6.79261ZM25.0396 8.03183L15.4941 31.2392L19.1934 32.7608L28.7389 9.5534L25.0396 8.03183ZM17.3438 30H14.0028V34H17.3438V30ZM15.8525 31.2392L6.30704 8.03183L2.60774 9.5534L12.1532 32.7608L15.8525 31.2392ZM4.45739 6.79261H4.15909V10.7926H4.45739V6.79261ZM2.15909 8.79261V32H6.15909V8.79261H2.15909ZM4.15909 30H0.698864V34H4.15909V30ZM2.69886 32V1.45454H-1.30114V32H2.69886ZM54.6798 31.0007L53.6081 32.6894L53.613 32.6925L54.6798 31.0007ZM51.0405 26.8693L49.2437 27.7476L49.2477 27.7557L51.0405 26.8693ZM51.0405 14.4155L49.2457 13.5331L49.2418 13.5412L51.0405 14.4155ZM54.6798 10.2692L53.613 8.57742L53.6081 8.58052L54.6798 10.2692ZM65.5526 10.2692L64.481 11.9578L64.4859 11.9609L65.5526 10.2692ZM69.1918 14.4155L67.393 15.2898L67.397 15.2979L69.1918 14.4155ZM69.1918 26.8693L67.3989 25.9829L67.395 25.9911L69.1918 26.8693ZM65.5526 31.0007L64.4858 29.309L64.481 29.3121L65.5526 31.0007ZM64.0015 28.1072L62.7577 26.541L62.7577 26.541L64.0015 28.1072ZM66.2536 24.9304L68.1286 25.6264L68.1286 25.6264L66.2536 24.9304ZM66.2536 16.3842L68.1303 15.6928L68.1303 15.6928L66.2536 16.3842ZM64.0015 13.1776L65.2546 11.6188L65.2546 11.6188L64.0015 13.1776ZM56.2458 13.1776L54.9927 11.6188L54.9927 11.6188L56.2458 13.1776ZM53.9937 16.3842L52.117 15.6928L52.117 15.6928L53.9937 16.3842ZM53.9937 24.9304L52.1187 25.6264L52.1187 25.6264L53.9937 24.9304ZM56.2458 28.1072L57.4896 26.541L57.4896 26.541L56.2458 28.1072ZM60.1236 30.4773C58.3861 30.4773 56.9507 30.0683 55.7465 29.309L53.613 32.6925C55.5309 33.9019 57.7248 34.4773 60.1236 34.4773V30.4773ZM55.7514 29.3121C54.5328 28.5387 53.5586 27.4499 52.8334 25.983L49.2477 27.7557C50.2725 29.8285 51.7245 31.494 53.6081 32.6894L55.7514 29.3121ZM52.8374 25.9911C52.1303 24.5443 51.743 22.7874 51.743 20.6648H47.743C47.743 23.2751 48.2207 25.6546 49.2437 27.7476L52.8374 25.9911ZM51.743 20.6648C51.743 18.5198 52.1312 16.7468 52.8393 15.2898L49.2418 13.5412C48.2198 15.6439 47.743 18.037 47.743 20.6648H51.743ZM52.8354 15.2979C53.5615 13.8209 54.5356 12.7294 55.7514 11.9578L53.6081 8.58052C51.7216 9.77769 50.2696 11.4504 49.2457 13.5331L52.8354 15.2979ZM55.7465 11.9609C56.9507 11.2016 58.3861 10.7926 60.1236 10.7926V6.79261C57.7248 6.79261 55.5309 7.36803 53.613 8.57743L55.7465 11.9609ZM60.1236 10.7926C61.8614 10.7926 63.2894 11.2016 64.481 11.9578L66.6243 8.58052C64.7136 7.36797 62.5222 6.79261 60.1236 6.79261V10.7926ZM64.4859 11.9609C65.7086 12.7319 66.6787 13.8201 67.393 15.2898L70.9906 13.5412C69.9748 11.4512 68.5189 9.77518 66.6194 8.57743L64.4859 11.9609ZM67.397 15.2979C68.1123 16.7529 68.5043 18.5229 68.5043 20.6648H72.5043C72.5043 18.0339 72.0213 15.6378 70.9867 13.5331L67.397 15.2979ZM68.5043 20.6648C68.5043 22.7842 68.1132 24.5381 67.399 25.983L70.9847 27.7557C72.0204 25.6607 72.5043 23.2783 72.5043 20.6648H68.5043ZM67.395 25.9911C66.6815 27.4507 65.7114 28.5362 64.4859 29.309L66.6194 32.6925C68.516 31.4965 69.972 29.8277 70.9887 27.7476L67.395 25.9911ZM64.481 29.3121C63.2894 30.0683 61.8614 30.4773 60.1236 30.4773V34.4773C62.5222 34.4773 64.7136 33.9019 66.6243 32.6894L64.481 29.3121ZM60.1236 31.3153C62.047 31.3153 63.8067 30.8159 65.2452 29.6735L62.7577 26.541C62.1679 27.0094 61.3423 27.3153 60.1236 27.3153V31.3153ZM65.2452 29.6735C66.5684 28.6227 67.525 27.2524 68.1286 25.6264L64.3786 24.2344C64.0078 25.2334 63.463 25.981 62.7577 26.541L65.2452 29.6735ZM68.1286 25.6264C68.7059 24.0712 68.9844 22.4113 68.9844 20.6648H64.9844C64.9844 21.9807 64.7758 23.1646 64.3786 24.2344L68.1286 25.6264ZM68.9844 20.6648C68.9844 18.918 68.7059 17.2551 68.1303 15.6928L64.3769 17.0756C64.7758 18.1583 64.9844 19.349 64.9844 20.6648H68.9844ZM68.1303 15.6928C67.5285 14.0593 66.5748 12.6801 65.2546 11.6188L62.7484 14.7363C63.4566 15.3057 64.0043 16.0643 64.3769 17.0756L68.1303 15.6928ZM65.2546 11.6188C63.8158 10.4621 62.0526 9.95454 60.1236 9.95454V13.9545C61.3367 13.9545 62.1588 14.2623 62.7484 14.7363L65.2546 11.6188ZM60.1236 9.95454C58.1947 9.95454 56.4315 10.4621 54.9927 11.6188L57.4989 14.7363C58.0885 14.2623 58.9106 13.9545 60.1236 13.9545V9.95454ZM54.9927 11.6188C53.6725 12.6801 52.7188 14.0593 52.117 15.6928L55.8704 17.0756C56.243 16.0643 56.7907 15.3057 57.4989 14.7363L54.9927 11.6188ZM52.117 15.6928C51.5414 17.2551 51.2628 18.918 51.2628 20.6648H55.2628C55.2628 19.349 55.4715 18.1583 55.8704 17.0756L52.117 15.6928ZM51.2628 20.6648C51.2628 22.4113 51.5414 24.0712 52.1187 25.6264L55.8687 24.2344C55.4715 23.1646 55.2628 21.9807 55.2628 20.6648H51.2628ZM52.1187 25.6264C52.7223 27.2524 53.6789 28.6227 55.002 29.6735L57.4896 26.541C56.7843 25.981 56.2395 25.2334 55.8687 24.2344L52.1187 25.6264ZM55.002 29.6735C56.4406 30.8159 58.2003 31.3153 60.1236 31.3153V27.3153C58.905 27.3153 58.0794 27.0094 57.4896 26.541L55.002 29.6735ZM89.5846 32H87.5846V34H89.5846V32ZM89.5846 1.45454V-0.545455H87.5846V1.45454H89.5846ZM93.1045 1.45454H95.1045V-0.545455H93.1045V1.45454ZM93.1045 12.7301H91.1045V14.7301H93.1045V12.7301ZM93.4028 12.7301V14.7301H94.4882L95.0797 13.8201L93.4028 12.7301ZM94.4767 11.2088L92.8736 10.0129L92.8705 10.0171L94.4767 11.2088ZM96.4753 9.53835L97.4567 11.281L97.4633 11.2773L96.4753 9.53835ZM105.126 10.2393L106.222 8.5666L106.222 8.5666L105.126 10.2393ZM108.571 26.9141L110.384 27.7593L110.386 27.7554L108.571 26.9141ZM105.141 31.0305L106.242 32.6999L106.25 32.6946L105.141 31.0305ZM96.5498 31.7464L95.5703 33.4901L95.5777 33.4943L95.5852 33.4985L96.5498 31.7464ZM94.5065 30.0611L92.9065 31.2611L92.9111 31.2671L92.9157 31.2732L94.5065 30.0611ZM93.4028 28.4801L95.1034 27.4274L94.5169 26.4801H93.4028V28.4801ZM92.9852 28.4801V26.4801H90.9852V28.4801H92.9852ZM92.9852 32V34H94.9852V32H92.9852ZM93.8055 25.1243L91.9381 25.8404L91.9399 25.8451L93.8055 25.1243ZM96.0278 28.2116L94.8123 29.7999L94.8226 29.8077L96.0278 28.2116ZM103.291 28.152L104.529 29.723L104.531 29.7214L103.291 28.152ZM105.529 24.9901L103.659 24.2786L103.656 24.2863L105.529 24.9901ZM105.543 16.1903L103.67 16.891L103.673 16.8997L103.677 16.9083L105.543 16.1903ZM103.321 13.103L102.093 14.6817L102.102 14.6885L102.111 14.6953L103.321 13.103ZM95.998 13.0433L97.1822 14.6551L97.1928 14.6472L95.998 13.0433ZM93.7906 16.0561L95.6554 16.7789L95.6573 16.7741L93.7906 16.0561ZM91.5846 32V1.45454H87.5846V32H91.5846ZM89.5846 3.45454H93.1045V-0.545455H89.5846V3.45454ZM91.1045 1.45454V12.7301H95.1045V1.45454H91.1045ZM93.1045 14.7301H93.4028V10.7301H93.1045V14.7301ZM95.0797 13.8201C95.3063 13.4714 95.6371 13.0013 96.0829 12.4005L92.8705 10.0171C92.4015 10.6492 92.0164 11.1933 91.7259 11.6401L95.0797 13.8201ZM96.0797 12.4047C96.3417 12.0536 96.7714 11.667 97.4567 11.281L95.4938 7.79574C94.4491 8.38416 93.5464 9.11114 92.8736 10.0129L96.0797 12.4047ZM97.4633 11.2773C97.9261 11.0143 98.7248 10.7926 100.025 10.7926V6.79261C98.3422 6.79261 96.7744 7.0681 95.4873 7.79944L97.4633 11.2773ZM100.025 10.7926C101.603 10.7926 102.915 11.1816 104.03 11.9121L106.222 8.5666C104.394 7.36816 102.304 6.79261 100.025 6.79261V10.7926ZM104.03 11.9121C105.157 12.6508 106.073 13.7151 106.759 15.1861L110.384 13.4957C109.419 11.4269 108.038 9.75689 106.222 8.5666L104.03 11.9121ZM106.759 15.1861C107.435 16.6372 107.809 18.4247 107.809 20.6051H111.809C111.809 17.9731 111.358 15.5844 110.384 13.4957L106.759 15.1861ZM107.809 20.6051C107.809 22.8077 107.434 24.6113 106.757 26.0727L110.386 27.7554C111.358 25.6572 111.809 23.2548 111.809 20.6051H107.809ZM106.759 26.0688C106.07 27.5447 105.155 28.6175 104.031 29.3664L106.25 32.6946C108.05 31.4947 109.421 29.8232 110.384 27.7593L106.759 26.0688ZM104.039 29.3612C102.934 30.0906 101.639 30.4773 100.085 30.4773V34.4773C102.349 34.4773 104.424 33.8995 106.242 32.6999L104.039 29.3612ZM100.085 30.4773C98.8067 30.4773 97.9995 30.2615 97.5144 29.9944L95.5852 33.4985C96.8701 34.2059 98.4194 34.4773 100.085 34.4773V30.4773ZM97.5294 30.0028C96.8165 29.6023 96.3689 29.2054 96.0974 28.849L92.9157 31.2732C93.5986 32.1696 94.5133 32.8963 95.5703 33.4901L97.5294 30.0028ZM96.1065 28.8611C95.646 28.2471 95.3175 27.7733 95.1034 27.4274L91.7023 29.5328C92.0052 30.0221 92.4125 30.6023 92.9065 31.2611L96.1065 28.8611ZM93.4028 26.4801H92.9852V30.4801H93.4028V26.4801ZM90.9852 28.4801V32H94.9852V28.4801H90.9852ZM92.9852 30H89.5846V34H92.9852V30ZM91.0449 20.5455C91.0449 22.4678 91.3263 24.2449 91.9381 25.8404L95.6729 24.4082C95.2705 23.3588 95.0449 22.0833 95.0449 20.5455H91.0449ZM91.9399 25.8451C92.5599 27.4497 93.5046 28.7991 94.8123 29.7999L97.2433 26.6234C96.6022 26.1327 96.0654 25.4239 95.6711 24.4035L91.9399 25.8451ZM94.8226 29.8077C96.1967 30.8453 97.8313 31.3153 99.6074 31.3153V27.3153C98.5596 27.3153 97.8078 27.0496 97.233 26.6156L94.8226 29.8077ZM99.6074 31.3153C101.446 31.3153 103.133 30.823 104.529 29.723L102.054 26.581C101.481 27.0321 100.711 27.3153 99.6074 27.3153V31.3153ZM104.531 29.7214C105.843 28.685 106.791 27.3167 107.401 25.6938L103.656 24.2863C103.272 25.3083 102.728 26.048 102.052 26.5826L104.531 29.7214ZM107.398 25.7015C108.003 24.1117 108.289 22.3847 108.289 20.5455H104.289C104.289 21.9676 104.068 23.2037 103.659 24.2786L107.398 25.7015ZM108.289 20.5455C108.289 18.7286 108.009 17.0282 107.41 15.4724L103.677 16.9083C104.073 17.9377 104.289 19.1407 104.289 20.5455H108.289ZM107.417 15.4897C106.813 13.8747 105.86 12.5203 104.531 11.5107L102.111 14.6953C102.771 15.197 103.3 15.9009 103.67 16.891L107.417 15.4897ZM104.549 11.5243C103.149 10.435 101.453 9.95454 99.6074 9.95454V13.9545C100.744 13.9545 101.525 14.2397 102.093 14.6817L104.549 11.5243ZM99.6074 9.95454C97.8244 9.95454 96.1816 10.4127 94.8032 11.4394L97.1928 14.6472C97.7633 14.2222 98.5267 13.9545 99.6074 13.9545V9.95454ZM94.8138 11.4316C93.4882 12.4055 92.5379 13.7417 91.9239 15.3381L95.6573 16.7741C96.0376 15.7853 96.559 15.1129 97.1821 14.6551L94.8138 11.4316ZM91.9258 15.3333C91.3205 16.895 91.0449 18.646 91.0449 20.5455H95.0449C95.0449 19.0245 95.2664 17.7826 95.6554 16.7789L91.9258 15.3333ZM128.423 32H126.423V34H128.423V32ZM128.423 9.09091V7.09091H126.423V9.09091H128.423ZM131.943 9.09091H133.943V7.09091H131.943V9.09091ZM131.943 32V34H133.943V32H131.943ZM128.438 4.57173L127.054 6.0151L127.061 6.02208L127.068 6.02899L128.438 4.57173ZM128.438 1.20099L127.068 -0.256263L127.061 -0.249353L127.054 -0.242369L128.438 1.20099ZM131.973 1.20099L130.589 2.64436L130.596 2.65134L130.603 2.65825L131.973 1.20099ZM131.973 4.57173L130.603 3.11448L130.596 3.12139L130.589 3.12837L131.973 4.57173ZM130.423 32V9.09091H126.423V32H130.423ZM128.423 11.0909H131.943V7.09091H128.423V11.0909ZM129.943 9.09091V32H133.943V9.09091H129.943ZM131.943 30H128.423V34H131.943V30ZM130.213 3.27273C130.033 3.27273 129.932 3.23103 129.808 3.11448L127.068 6.02899C127.939 6.8471 129.021 7.27273 130.213 7.27273V3.27273ZM129.823 3.12837C129.751 3.05963 129.731 3.01757 129.725 3.00422C129.72 2.9921 129.707 2.96066 129.707 2.88636H125.707C125.707 4.10489 126.186 5.1828 127.054 6.0151L129.823 3.12837ZM129.707 2.88636C129.707 2.81207 129.72 2.78063 129.725 2.7685C129.731 2.75516 129.751 2.7131 129.823 2.64436L127.054 -0.242369C126.186 0.589933 125.707 1.66784 125.707 2.88636H129.707ZM129.808 2.65825C129.932 2.5417 130.033 2.5 130.213 2.5V-1.5C129.021 -1.5 127.939 -1.07437 127.068 -0.256263L129.808 2.65825ZM130.213 2.5C130.393 2.5 130.48 2.54064 130.589 2.64436L133.357 -0.242371C132.491 -1.07331 131.406 -1.5 130.213 -1.5V2.5ZM130.603 2.65825C130.679 2.72909 130.699 2.77146 130.703 2.78211C130.707 2.79102 130.719 2.81765 130.719 2.88636H134.719C134.719 1.65399 134.224 0.572143 133.343 -0.256261L130.603 2.65825ZM130.719 2.88636C130.719 2.95508 130.707 2.98171 130.703 2.99062C130.699 3.00127 130.679 3.04363 130.603 3.11448L133.343 6.02899C134.224 5.20059 134.719 4.11874 134.719 2.88636H130.719ZM130.589 3.12837C130.48 3.23208 130.393 3.27273 130.213 3.27273V7.27273C131.406 7.27273 132.491 6.84604 133.357 6.01509L130.589 3.12837ZM155.14 1.45454H157.14V-0.545455H155.14V1.45454ZM155.14 32V34H157.14V32H155.14ZM151.62 32H149.62V34H151.62V32ZM151.62 1.45454V-0.545455H149.62V1.45454H151.62ZM153.14 1.45454V32H157.14V1.45454H153.14ZM155.14 30H151.62V34H155.14V30ZM153.62 32V1.45454H149.62V32H153.62ZM151.62 3.45454H155.14V-0.545455H151.62V3.45454ZM174.817 32H172.817V34H174.817V32ZM174.817 9.09091V7.09091H172.817V9.09091H174.817ZM178.337 9.09091H180.337V7.09091H178.337V9.09091ZM178.337 32V34H180.337V32H178.337ZM174.832 4.57173L173.447 6.0151L173.455 6.02208L173.462 6.02899L174.832 4.57173ZM174.832 1.20099L173.462 -0.256263L173.455 -0.249353L173.447 -0.242369L174.832 1.20099ZM178.367 1.20099L176.982 2.64436L176.989 2.65134L176.997 2.65825L178.367 1.20099ZM178.367 4.57173L176.997 3.11448L176.989 3.12139L176.982 3.12837L178.367 4.57173ZM176.817 32V9.09091H172.817V32H176.817ZM174.817 11.0909H178.337V7.09091H174.817V11.0909ZM176.337 9.09091V32H180.337V9.09091H176.337ZM178.337 30H174.817V34H178.337V30ZM176.607 3.27273C176.427 3.27273 176.326 3.23103 176.202 3.11448L173.462 6.02899C174.332 6.8471 175.415 7.27273 176.607 7.27273V3.27273ZM176.216 3.12837C176.145 3.05963 176.124 3.01757 176.119 3.00422C176.113 2.9921 176.101 2.96066 176.101 2.88636H172.101C172.101 4.10489 172.58 5.1828 173.447 6.0151L176.216 3.12837ZM176.101 2.88636C176.101 2.81207 176.113 2.78063 176.119 2.7685C176.124 2.75516 176.145 2.7131 176.216 2.64436L173.447 -0.242369C172.58 0.589933 172.101 1.66784 172.101 2.88636H176.101ZM176.202 2.65825C176.326 2.5417 176.427 2.5 176.607 2.5V-1.5C175.415 -1.5 174.332 -1.07437 173.462 -0.256263L176.202 2.65825ZM176.607 2.5C176.786 2.5 176.874 2.54064 176.982 2.64436L179.751 -0.242371C178.885 -1.07331 177.799 -1.5 176.607 -1.5V2.5ZM176.997 2.65825C177.072 2.72909 177.092 2.77146 177.097 2.78211C177.101 2.79102 177.112 2.81765 177.112 2.88636H181.112C181.112 1.65399 180.618 0.572143 179.736 -0.256261L176.997 2.65825ZM177.112 2.88636C177.112 2.95508 177.101 2.98171 177.097 2.99062C177.092 3.00127 177.072 3.04363 176.997 3.11448L179.736 6.02899C180.618 5.20059 181.112 4.11874 181.112 2.88636H177.112ZM176.982 3.12837C176.874 3.23208 176.786 3.27273 176.607 3.27273V7.27273C177.799 7.27273 178.885 6.84604 179.751 6.01509L176.982 3.12837ZM207.977 9.09091H209.977V7.09091H207.977V9.09091ZM207.977 12.0739V14.0739H209.977V12.0739H207.977ZM196.105 12.0739H194.105V14.0739H196.105V12.0739ZM196.105 9.09091V7.09091H194.105V9.09091H196.105ZM199.565 3.60227V1.60227H197.565V3.60227H199.565ZM203.085 3.60227H205.085V1.60227H203.085V3.60227ZM203.517 27.6747L201.787 28.6782L201.799 28.6987L201.812 28.719L203.517 27.6747ZM204.651 28.6591L203.957 30.5351L203.982 30.5441L204.006 30.5524L204.651 28.6591ZM207.082 28.8381L207.398 30.8129L207.436 30.8068L207.474 30.7992L207.082 28.8381ZM207.678 28.7188L209.629 28.2771L209.198 26.3751L207.286 26.7576L207.678 28.7188ZM208.394 31.8807L209.097 33.7533L210.73 33.1407L210.345 31.439L208.394 31.8807ZM207.395 32.1491L206.985 30.1916L206.964 30.1961L206.942 30.2011L207.395 32.1491ZM202.846 31.657L202.021 33.479L202.029 33.4822L202.846 31.657ZM200.49 29.7031L198.855 30.855L198.859 30.8612L198.863 30.8673L200.49 29.7031ZM205.977 9.09091V12.0739H209.977V9.09091H205.977ZM207.977 10.0739H196.105V14.0739H207.977V10.0739ZM198.105 12.0739V9.09091H194.105V12.0739H198.105ZM196.105 11.0909H207.977V7.09091H196.105V11.0909ZM199.565 5.60227H203.085V1.60227H199.565V5.60227ZM201.085 3.60227V25.4375H205.085V3.60227H201.085ZM201.085 25.4375C201.085 26.5596 201.236 27.7276 201.787 28.6782L205.247 26.6713C205.247 26.6715 205.235 26.65 205.217 26.5979C205.199 26.5458 205.177 26.4691 205.156 26.3629C205.115 26.1466 205.085 25.8439 205.085 25.4375H201.085ZM201.812 28.719C202.302 29.5208 203.009 30.1846 203.957 30.5351L205.344 26.7831C205.344 26.783 205.345 26.7834 205.346 26.7839C205.346 26.7843 205.343 26.7826 205.336 26.7762C205.321 26.7637 205.28 26.7238 205.223 26.6304L201.812 28.719ZM204.006 30.5524C204.691 30.7854 205.402 30.8977 206.127 30.8977V26.8977C205.819 26.8977 205.545 26.8509 205.295 26.7658L204.006 30.5524ZM206.127 30.8977C206.571 30.8977 207.005 30.8758 207.398 30.8129L206.766 26.8632C206.662 26.8799 206.459 26.8977 206.127 26.8977V30.8977ZM207.474 30.7992C207.723 30.7495 207.922 30.7097 208.071 30.6799L207.286 26.7576C207.137 26.7874 206.938 26.8272 206.69 26.8769L207.474 30.7992ZM205.728 29.1604L206.444 32.3223L210.345 31.439L209.629 28.2771L205.728 29.1604ZM207.692 30.008C207.592 30.0454 207.373 30.1105 206.985 30.1916L207.805 34.1067C208.272 34.0089 208.719 33.8949 209.097 33.7533L207.692 30.008ZM206.942 30.2011C206.717 30.2536 206.34 30.2983 205.769 30.2983V34.2983C206.511 34.2983 207.218 34.2436 207.848 34.0972L206.942 30.2011ZM205.769 30.2983C205.071 30.2983 204.375 30.1502 203.664 29.8317L202.029 33.4822C203.227 34.0189 204.479 34.2983 205.769 34.2983V30.2983ZM203.671 29.8349C203.059 29.558 202.546 29.1393 202.116 28.5389L198.863 30.8673C199.686 32.017 200.744 32.9008 202.021 33.479L203.671 29.8349ZM202.125 28.5512C201.798 28.088 201.565 27.4139 201.565 26.392H197.565C197.565 28.035 197.948 29.5682 198.855 30.855L202.125 28.5512ZM201.565 26.392V3.60227H197.565V26.392H201.565ZM227.173 40.4418L227.589 38.4856L227.569 38.4813L227.549 38.4775L227.173 40.4418ZM226.203 40.1733L224.282 39.619L223.82 41.2179L225.309 41.9622L226.203 40.1733ZM227.098 37.071L227.594 35.1334L225.714 34.6526L225.176 36.5167L227.098 37.071ZM229.365 37.3097L229.184 35.3179L229.184 35.3179L229.365 37.3097ZM231.11 36.4297L229.696 35.0155L229.682 35.0291L229.669 35.0429L231.11 36.4297ZM232.527 33.9091L234.404 34.599L234.405 34.5976L232.527 33.9091ZM233.183 32.1193L235.061 32.8078L235.314 32.1182L235.06 31.4288L233.183 32.1193ZM224.712 9.09091V7.09091H221.845L222.835 9.78142L224.712 9.09091ZM228.53 9.09091L230.42 8.43626L229.954 7.09091H228.53V9.09091ZM234.854 27.3466L232.964 28.0012L233.43 29.3466H234.854V27.3466ZM235.092 27.3466V29.3466H236.516L236.982 28.0012L235.092 27.3466ZM241.416 9.09091V7.09091H239.992L239.526 8.43626L241.416 9.09091ZM245.234 9.09091L247.11 9.78568L248.108 7.09091H245.234V9.09091ZM235.51 35.3409L233.635 34.6461L233.634 34.6473L235.51 35.3409ZM233.884 38.2791L232.348 36.9987L232.34 37.0084L233.884 38.2791ZM231.632 40.0241L230.824 38.1948L230.816 38.1983L231.632 40.0241ZM228.769 38.5909C228.279 38.5909 227.891 38.5497 227.589 38.4856L226.756 42.398C227.389 42.5326 228.065 42.5909 228.769 42.5909V38.5909ZM227.549 38.4775C227.348 38.439 227.207 38.4058 227.114 38.3801C227.068 38.3674 227.044 38.3592 227.036 38.3565C227.026 38.353 227.051 38.3611 227.098 38.3844L225.309 41.9622C225.759 42.1875 226.328 42.3164 226.797 42.4061L227.549 38.4775ZM228.125 40.7276L229.02 37.6253L225.176 36.5167L224.282 39.619L228.125 40.7276ZM226.602 39.0086C227.608 39.2659 228.601 39.3874 229.546 39.3014L229.184 35.3179C228.817 35.3512 228.298 35.3136 227.594 35.1334L226.602 39.0086ZM229.546 39.3014C230.735 39.1934 231.75 38.6492 232.551 37.8164L229.669 35.0429C229.456 35.2641 229.308 35.3066 229.184 35.3179L229.546 39.3014ZM232.524 37.8439C233.342 37.0265 233.937 35.8706 234.404 34.599L230.65 33.2192C230.262 34.2743 229.913 34.7987 229.696 35.0155L232.524 37.8439ZM234.405 34.5976L235.061 32.8078L231.306 31.4308L230.649 33.2206L234.405 34.5976ZM235.06 31.4288L226.589 8.4004L222.835 9.78142L231.306 32.8098L235.06 31.4288ZM224.712 11.0909H228.53V7.09091H224.712V11.0909ZM226.64 9.74555L232.964 28.0012L236.744 26.6919L230.42 8.43626L226.64 9.74555ZM234.854 29.3466H235.092V25.3466H234.854V29.3466ZM236.982 28.0012L243.306 9.74555L239.526 8.43626L233.203 26.6919L236.982 28.0012ZM241.416 11.0909H245.234V7.09091H241.416V11.0909ZM243.359 8.39614L233.635 34.6461L237.385 36.0357L247.11 9.78568L243.359 8.39614ZM233.634 34.6473C233.257 35.6682 232.817 36.4355 232.348 36.9988L235.421 39.5595C236.244 38.5716 236.888 37.3801 237.386 36.0345L233.634 34.6473ZM232.34 37.0084C231.874 37.5744 231.369 37.954 230.824 38.1948L232.441 41.8535C233.606 41.3386 234.602 40.5548 235.429 39.5498L232.34 37.0084ZM230.816 38.1983C230.263 38.4454 229.593 38.5909 228.769 38.5909V42.5909C230.072 42.5909 231.311 42.3586 232.448 41.85L230.816 38.1983Z" fill="#E63946"/>
</svg>
